<?xml version="1.0" encoding="UTF-8"?>
<svg id="versione_1" data-name="versione 1" xmlns="http://www.w3.org/2000/svg" viewBox="0 0 500 500">
  <defs>
    <style>
      .cls-1 {
        fill: #fff;
      }

      .cls-2 {
        fill: #ba8b24;
      }

      .cls-3 {
        fill: #7ffffa;
      }

      .cls-4 {
        fill: #ad815e;
      }

      .cls-5 {
        fill: #f90ca4;
      }

      .cls-6 {
        fill: #f80000;
      }

      .cls-7 {
        fill: #d2b2a2;
      }

      .cls-8 {
        fill: #ffef20;
      }

      .cls-9 {
        fill: #6ec273;
      }
    </style>
  </defs>
  <rect class="cls-1" width="500" height="500"/>
  <g>
    <path class="cls-7" d="m336.7,149.24c-3.58,14.44-9.9,12.51-20.94,13.98s-20.17-9.52-20.17-21.27,9.4-20.14,20.51-19.21c14.34,1.19,23.36,15.45,20.61,26.51Z"/>
    <path d="m313.79,166.35c-4.51,0-8.91-1.71-12.6-4.94-5.39-4.72-8.61-12-8.61-19.46,0-6.49,2.51-12.38,7.08-16.58,4.5-4.14,10.44-6.14,16.68-5.62,7.54.63,14.46,4.61,18.99,10.92,4.22,5.89,5.82,13.1,4.29,19.3h0c-3.56,14.33-10.67,14.98-18.9,15.75-1.45.13-2.96.27-4.57.49-.79.1-1.58.16-2.36.16Zm.62-40.69c-4.03,0-7.78,1.44-10.69,4.12-3.31,3.05-5.14,7.37-5.14,12.17,0,5.68,2.51,11.4,6.56,14.95,2.13,1.87,5.63,3.96,10.22,3.35,1.73-.23,3.36-.38,4.8-.51,8.07-.75,11.09-1.03,13.62-11.22,1.12-4.52-.13-9.88-3.34-14.36-3.5-4.88-8.83-7.95-14.61-8.44-.48-.04-.96-.06-1.43-.06Z"/>
  </g>
  <g>
    <path class="cls-4" d="m354.43,239.22c0,48.79-21.69,73.07-68.09,75.06-26.51,1.14-72.09,4.08-104.85-18.21-24.56-16.71-32.21-43.18-30.64-66.04,3.62-52.82,41.79-101.73,104.51-99.61,71.47,2.42,99.06,60.01,99.06,108.8Z"/>
    <path d="m260.28,318.06c-25.26,0-56.28-3.05-80.47-19.51-22.26-15.14-33.9-40.19-31.94-68.73,3.6-52.57,41.7-104.61,107.61-102.4,70.43,2.38,101.96,57.87,101.96,111.8,0,50.47-23.21,76.01-70.96,78.06l-3.02.13c-6.74.3-14.63.65-23.17.65Zm-8.83-184.71c-59.74,0-94.27,48.21-97.6,96.88-.85,12.47.29,43.6,29.33,63.36,30.73,20.9,74.1,18.98,100.01,17.83l3.03-.13c44.49-1.92,65.21-24.82,65.21-72.07,0-51.04-29.74-103.56-96.17-105.8-1.28-.04-2.56-.06-3.81-.06Z"/>
  </g>
  <g>
    <g>
      <path class="cls-1" d="m332.57,193.95c4.73,18.4,3.08,27.05-5.03,29.13-8.11,2.09-18.49-3.36-23.22-21.75-4.73-18.4-3.11-34.83,5-36.92,8.11-2.09,18.52,11.14,23.25,29.54Z"/>
      <path d="m324.19,226.51c-3.98,0-7.92-1.46-11.42-4.29-5.11-4.13-9.04-11.1-11.36-20.14-2.43-9.43-3.27-18.55-2.39-25.69,1.03-8.27,4.42-13.56,9.54-14.88,5.14-1.32,10.82,1.57,16,8.14,4.64,5.9,8.52,14.27,10.91,23.56,2.52,9.8,3.27,16.77,2.35,21.95-1.03,5.83-4.24,9.47-9.54,10.83-1.36.35-2.73.52-4.09.52Zm-13.17-59.31c-.33,0-.65.04-.96.12-2.54.65-4.39,4.23-5.08,9.81-.8,6.41,0,14.74,2.24,23.46,2,7.79,5.23,13.66,9.33,16.97,3.18,2.57,6.81,3.5,10.24,2.62,2.97-.77,4.51-2.58,5.12-6.07.75-4.25.01-10.6-2.25-19.41-2.19-8.5-5.67-16.08-9.81-21.34-3.1-3.93-6.31-6.15-8.83-6.15Z"/>
    </g>
    <path d="m323.59,187.74c2.25,9.16.08,21.04-5.73,21.93-7.76,1.19-12.69-7.68-14.94-16.84s.18-18.56,5.89-19.96,12.53,5.71,14.78,14.87Z"/>
    <path class="cls-5" d="m314.38,191.57c1.16,2.14,1.36,5.26-.07,5.87-1.9.82-3.72-1.06-4.88-3.2s-1.13-4.65.23-5.39,3.55.58,4.71,2.72Z"/>
    <path class="cls-3" d="m317.52,174.82c1.1,2.81,1.03,6.63-.64,7.1-2.23.63-4.1-2.01-5.2-4.82s-.83-5.85.78-6.48,3.96,1.39,5.06,4.2Z"/>
  </g>
  <g>
    <path class="cls-7" d="m349.32,271.22c-3.22,24.58-33.16,43.85-65.41,43.85s-51.08-7.57-51.08-31.84,38.47-63.14,70.72-63.14,48.92,27.07,45.77,51.12Z"/>
    <path d="m283.92,318.07c-25.18,0-54.08-3.96-54.08-34.84,0-12.48,9.28-28.9,24.22-42.86,15.83-14.79,33.88-23.28,49.5-23.28s28.05,5.68,37.11,16c9.09,10.36,13.44,24.75,11.63,38.51-3.36,25.62-34.03,46.46-68.38,46.46Zm19.64-94.98c-13.91,0-30.88,8.1-45.4,21.66-13.56,12.66-22.31,27.77-22.31,38.48,0,20.48,13.93,28.84,48.08,28.84,31.45,0,59.45-18.5,62.43-41.24h0c1.58-12.07-2.23-24.7-10.19-33.77-5.59-6.37-15.78-13.96-32.6-13.96Z"/>
  </g>
  <path d="m320.81,236.12c-3.91,5.91-10.63,8.66-15.53,8.94-3.56.2-12.73-3.98-15.61-8.94s6.97-10.34,15.57-10.34,18.72,5.58,15.57,10.34Z"/>
  <g>
    <path class="cls-6" d="m223.7,167.45l-20.61-64.4s-81.17,10.12-82.53,104.29l82.53,2.93s4.39-28.26,20.61-42.83Z"/>
    <path d="m205.64,213.37l-88.13-3.13.04-2.94c.72-49.92,23.81-76.43,43.06-89.88,20.83-14.56,41.24-17.24,42.1-17.35l2.47-.31,21.96,68.62-1.44,1.3c-15.22,13.66-19.6,40.78-19.65,41.06l-.41,2.63Zm-82.02-8.92l76.98,2.74c1.49-7.29,6.66-27.86,19.65-40.62l-19.23-60.11c-5.89,1.16-21.59,5.08-37.18,16.04-25.5,17.93-39.03,45.49-40.22,81.96Z"/>
  </g>
  <ellipse class="cls-1" cx="208.08" cy="156.9" rx="13.94" ry="16.28"/>
  <path class="cls-9" d="m193.41,207.34c0,5.09-16.01,1.29-23.16,1.29s-13.94-2.11-13.95-7.2c0-3.61,6.83-10.6,13.95-11.23,17.2-1.53,23.16,12.05,23.16,17.14Z"/>
  <g>
    <path class="cls-2" d="m207.47,116.76c-63.9,31.44-65.63,92.29-65.14,91.36l-21.78-.77s-4.13-87.61,82.53-104.29l4.39,13.7Z"/>
    <path d="m143.97,211.45l-2.03-.34-24.25-.86-.13-2.76c-.04-.92-.95-22.84,8.99-47.17,9.22-22.57,29.89-51.34,75.97-60.21l2.61-.5,5.98,18.7-2.32,1.14c-54.13,26.63-62.19,74.28-63.33,85.78l1.77.06-3.26,6.16Zm-20.43-7l15.9.56c.49-5.89,2.52-18.43,9.28-33.22,7.74-16.94,23.56-40.31,55.12-56.56l-2.79-8.7c-33.4,7.13-56.56,25.91-68.87,55.86-7.51,18.27-8.55,35.53-8.65,42.06Z"/>
  </g>
  <path class="cls-1" d="m180.64,175.69c-.32,3.54-3.57,5.95-6.7,5.06-2.37-.67-4.47-2.27-4.47-5.06s2.09-4.4,4.47-5.06c4.99-1.41,7.01,1.7,6.7,5.06Z"/>
  <g>
    <path d="m98.99,383.94v-11.75l-12.27-17.02h12.71l5.14,8.4,5.27-8.4h12.4l-12.27,17.02v11.75h-10.97Z"/>
    <path d="m124.49,383.94v-28.77h33.25v7.31h-22.19v3.61h11.71v6.88h-11.71v3.66h22.19v7.31h-33.25Z"/>
    <path d="m161.21,383.94v-28.77h33.25v7.31h-22.19v3.61h11.71v6.88h-11.71v3.66h22.19v7.31h-33.25Z"/>
    <path d="m197.11,383.94v-5.13l15.67-16.36h-15.67v-7.27h30.85v5.7l-14.54,15.75h14.54v7.31h-30.85Z"/>
    <path d="m241.67,383.94v-11.75l-12.27-17.02h12.71l5.14,8.4,5.27-8.4h12.4l-12.27,17.02v11.75h-10.97Z"/>
    <path d="m276.31,383.94v-21.45h-10.44v-7.31h31.86v7.31h-10.4v21.45h-11.01Z"/>
    <path d="m318.08,379.76h-10.88l-1.35,4.18h-12.05l11.66-28.77h14.01l11.66,28.77h-11.66l-1.39-4.18Zm-8.53-7.05h6.14l-3.09-9.23-3.05,9.23Z"/>
    <path d="m333.57,383.94v-28.77h11.05v21.46h14.88v7.31h-25.94Z"/>
    <path d="m362.37,383.94v-28.77h10.97v28.77h-10.97Z"/>
    <path d="m400.06,379.76h-10.88l-1.35,4.18h-12.05l11.66-28.77h14.01l11.66,28.77h-11.66l-1.39-4.18Zm-8.53-7.05h6.14l-3.09-9.23-3.05,9.23Z"/>
  </g>
  <rect x="86.72" y="329.92" width="326.39" height="5.94"/>
  <path d="m205.73,213.37l-66.41-2.35v-2.91c.02-.66.19-16.41,8.51-35.92,7.67-17.99,24.04-42.65,58.42-57.94l3.05-1.36,17.87,55.71-1.6,1.29c-.16.13-16.19,13.49-19.51,40.75l-.33,2.73Zm-60.23-8.14l54.98,1.95c3.58-23.21,15.44-36.42,19.76-40.56l-14.59-45.5c-24.49,11.65-42.04,29.53-52.2,53.18-5.88,13.7-7.5,25.63-7.95,30.92Z"/>
  <g>
    <g>
      <path class="cls-1" d="m256.2,212.75c-4.13,26.08-22.66,42.89-37.6,40.52s-17.96-23.35-13.83-49.43c4.13-26.08,21.71-44.82,36.65-42.45,14.94,2.37,18.91,25.28,14.78,51.36Z"/>
      <path d="m221.47,256.5c-1.12,0-2.23-.09-3.33-.26-15.54-2.46-21.33-21.24-16.32-52.87,2.05-12.96,7.38-24.82,14.99-33.42,7.66-8.64,16.81-12.85,25.09-11.53,15.62,2.48,22.24,23.47,17.27,54.8h0c-2.03,12.82-7.56,24.38-15.57,32.56-6.78,6.93-14.68,10.72-22.13,10.72Zm17.38-92.31c-5.7,0-11.98,3.46-17.55,9.75-6.86,7.75-11.68,18.53-13.55,30.38-2.06,12.96-5.07,43.4,11.33,46,6.44,1.02,13.81-2.16,20.23-8.73,7.14-7.3,12.09-17.7,13.93-29.3,3.54-22.33,1.11-45.81-12.28-47.93-.69-.11-1.4-.16-2.11-.16Z"/>
    </g>
    <g>
      <path d="m256.14,199.15c-1.75,11.99-9.59,25.16-16.33,23.49-9.01-2.23-10.31-15.13-8.55-27.13,1.75-11.99,8.73-22.07,15.61-21.06s11.03,12.71,9.28,24.7Z"/>
      <path class="cls-5" d="m252.47,203.71c-1.21,8.31-6.65,17.44-11.32,16.28-6.24-1.55-7.14-10.49-5.93-18.8,1.21-8.31,6.05-15.3,10.82-14.6s7.65,8.81,6.43,17.12Z"/>
      <path class="cls-3" d="m250.76,199.57c-.44,2.99-2.39,6.27-4.07,5.85-2.24-.56-2.57-3.77-2.13-6.76s2.18-5.5,3.89-5.25,2.75,3.17,2.31,6.15Z"/>
      <path class="cls-8" d="m245.35,190.27c-.58,4-3.2,8.39-5.45,7.83-3-.74-3.44-5.05-2.85-9.05s2.91-7.36,5.2-7.02,3.68,4.24,3.1,8.24Z"/>
    </g>
  </g>
</svg>